<?xml version="1.0" encoding="UTF-8"?>
<svg version="1.1" xmlns="http://www.w3.org/2000/svg" width="295" height="171">
<path d="M0 0 C97.35 0 194.7 0 295 0 C295 56.43 295 112.86 295 171 C197.65 171 100.3 171 0 171 C0 114.57 0 58.14 0 0 Z " fill="#FEFEFE" transform="translate(0,0)"/>
<path d="M0 0 C3.37395186 2.73523046 6.0980151 6.00241515 8.75390625 9.421875 C13.67383021 6.64104841 18.51359284 3.75535899 23.32421875 0.7890625 C31.15402796 -3.6167787 40.09043075 -4.10120066 48.74609375 -1.7734375 C55.10511646 1.02917129 58.74068089 5.22236741 61.75390625 11.421875 C63.36945144 15.63889946 63.99997948 19.10251866 63.98095703 23.61083984 C63.98073044 25.41202774 63.98073044 25.41202774 63.98049927 27.24960327 C63.9701767 28.53106232 63.95985413 29.81252136 63.94921875 31.1328125 C63.94548415 32.46944974 63.94263929 33.80608974 63.94064331 35.14273071 C63.93304202 38.64442632 63.91342413 42.1459535 63.89123535 45.64758301 C63.87070099 49.22727175 63.86162543 52.80698796 63.8515625 56.38671875 C63.83017452 63.39851326 63.79502135 70.41016868 63.75390625 77.421875 C55.50390625 77.421875 47.25390625 77.421875 38.75390625 77.421875 C38.69783203 72.00394531 38.69783203 72.00394531 38.640625 66.4765625 C38.59439086 62.97161869 38.54316391 59.46678087 38.49145508 55.96191406 C38.45823678 53.5293626 38.43019526 51.09673463 38.4074707 48.6640625 C38.37386867 45.16373142 38.32154791 41.66409945 38.265625 38.1640625 C38.25923508 37.07946747 38.25284515 35.99487244 38.2462616 34.87741089 C38.1394925 29.37229733 37.99504664 25.10315047 34.75390625 20.421875 C31.49044467 18.24623395 30.42543858 18.1255995 26.62890625 18.109375 C25.29472656 18.08423828 25.29472656 18.08423828 23.93359375 18.05859375 C19.68901031 18.43267904 19.68901031 18.43267904 11.75390625 21.421875 C11.75390625 39.901875 11.75390625 58.381875 11.75390625 77.421875 C3.50390625 77.421875 -4.74609375 77.421875 -13.24609375 77.421875 C-13.28347656 73.72613281 -13.32085937 70.03039062 -13.359375 66.22265625 C-13.40559165 62.64162287 -13.45682496 59.06069395 -13.50854492 55.47973633 C-13.54179032 52.99184522 -13.56982341 50.50387876 -13.5925293 48.01586914 C-13.62608145 44.43863832 -13.67839967 40.86209781 -13.734375 37.28515625 C-13.74076492 36.17352615 -13.74715485 35.06189606 -13.7537384 33.9165802 C-13.77353256 32.87587875 -13.79332672 31.83517731 -13.8137207 30.76293945 C-13.83037529 29.39393242 -13.83037529 29.39393242 -13.84736633 27.99726868 C-14.33337911 24.85809597 -15.38946953 22.98370966 -17.24609375 20.421875 C-20.53297205 18.2306228 -21.66284003 18.12543612 -25.49609375 18.109375 C-26.40875 18.09261719 -27.32140625 18.07585937 -28.26171875 18.05859375 C-32.04553491 18.37787121 -32.04553491 18.37787121 -38.24609375 21.421875 C-38.57609375 40.231875 -38.90609375 59.041875 -39.24609375 78.421875 C-47.82609375 78.421875 -56.40609375 78.421875 -65.24609375 78.421875 C-65.24609375 52.351875 -65.24609375 26.281875 -65.24609375 -0.578125 C-56.66609375 -0.578125 -48.08609375 -0.578125 -39.24609375 -0.578125 C-38.91609375 1.731875 -38.58609375 4.041875 -38.24609375 6.421875 C-37.53324219 5.93976563 -36.82039063 5.45765625 -36.0859375 4.9609375 C-25.68781799 -1.89650336 -11.84621085 -7.06167213 0 0 Z " fill="#034686" transform="translate(128.24609375,92.578125)"/>
<path d="M0 0 C3.98256948 -0.24929412 7.96206433 -0.42955244 11.95068359 -0.54931641 C13.96483951 -0.62370148 15.97682432 -0.75085072 17.98828125 -0.87890625 C27.59020291 -1.12016056 27.59020291 -1.12016056 31.56445312 2.03759766 C33.63103036 4.59380512 35.33804235 7.16697385 37 10 C37.83654352 11.20555351 38.6791281 12.40696943 39.53125 13.6015625 C40.50578125 15.09816406 40.50578125 15.09816406 41.5 16.625 C42.50546875 18.16027344 42.50546875 18.16027344 43.53125 19.7265625 C44.0159375 20.47679688 44.500625 21.22703125 45 22 C48.51826177 17.67245283 51.85478621 13.22041946 55.1875 8.75 C56.26358933 7.30674442 57.34037511 5.86400775 58.41796875 4.421875 C58.89000732 3.78862305 59.3620459 3.15537109 59.84838867 2.50292969 C61 1 61 1 62 0 C64.07262076 -0.08767112 66.14820294 -0.10695873 68.22265625 -0.09765625 C69.48271484 -0.09443359 70.74277344 -0.09121094 72.04101562 -0.08789062 C73.38151109 -0.07953403 74.72200588 -0.07106907 76.0625 -0.0625 C77.40689942 -0.0574866 78.7513006 -0.05292342 80.09570312 -0.04882812 C83.39717941 -0.03699488 86.69856803 -0.02050971 90 0 C88.16408653 3.86743573 85.73011254 7.04984802 83.0625 10.375 C82.07280594 11.62100581 81.08322603 12.86710229 80.09375 14.11328125 C79.58457031 14.75217285 79.07539063 15.39106445 78.55078125 16.04931641 C76.03936784 19.20835186 73.55206125 22.38623655 71.0625 25.5625 C66.09775803 31.89100542 66.09775803 31.89100542 63.62109375 34.65234375 C61.81713327 36.79345496 61.81713327 36.79345496 61.98828125 38.9609375 C63.4040803 41.81440121 65.2084308 44.12614264 67.1875 46.625 C68.0885432 47.77213421 68.98958477 48.9192697 69.890625 50.06640625 C70.38369141 50.68918457 70.87675781 51.31196289 71.38476562 51.95361328 C73.79367136 55.00552499 76.17672596 58.07737375 78.56176758 61.14794922 C79.79477576 62.73514834 81.02895411 64.32143924 82.2644043 65.90673828 C82.83586182 66.64005371 83.40731934 67.37336914 83.99609375 68.12890625 C84.50325928 68.77931885 85.0104248 69.42973145 85.53295898 70.09985352 C86.01708252 70.72690186 86.50120605 71.3539502 87 72 C87.55695557 72.69859131 88.11391113 73.39718262 88.68774414 74.11694336 C90 76 90 76 90 78 C65.22035057 80.70461405 65.22035057 80.70461405 58.49707031 76.39599609 C54.66412912 72.46426776 52.1578593 67.89075295 49.90527344 62.91601562 C48.8647411 60.71372388 47.49027321 58.91742158 46 57 C46 56.34 46 55.68 46 55 C45.34 55 44.68 55 44 55 C43.79503906 55.65613281 43.59007812 56.31226563 43.37890625 56.98828125 C41.46324959 61.17233588 38.74399251 64.56039565 35.9375 68.1875 C34.84113597 69.61748467 33.74602235 71.04842917 32.65234375 72.48046875 C32.16757568 73.10848389 31.68280762 73.73649902 31.18334961 74.38354492 C29.92917771 76.00207569 29.92917771 76.00207569 29 78 C19.43 78 9.86 78 0 78 C2.42141019 73.96431634 4.9603918 70.34764477 7.875 66.6875 C8.58160767 65.79140015 8.58160767 65.79140015 9.30249023 64.87719727 C12.01193986 61.45429309 14.76066528 58.06706564 17.54296875 54.703125 C18.12900879 53.99196533 18.71504883 53.28080566 19.31884766 52.5480957 C20.45992949 51.16687861 21.60654197 49.79020748 22.75927734 48.41870117 C25.51533661 45.08270874 27.70037946 42.20560435 29 38 C28.19949219 37.03513672 28.19949219 37.03513672 27.3828125 36.05078125 C21.87891994 29.37564512 16.55652149 22.58771106 11.31005859 15.70996094 C9.92910046 13.907458 8.53804636 12.11312238 7.14453125 10.3203125 C6.68103271 9.7226709 6.21753418 9.1250293 5.73999023 8.50927734 C4.84410344 7.3546073 3.94653318 6.20124107 3.04711914 5.04931641 C0 1.11220016 0 1.11220016 0 0 Z " fill="#024586" transform="translate(203,92)"/>
<path d="M0 0 C3.66437761 1.87513073 5.67841178 4.03523533 7 8 C7.08770177 9.70283422 7.11765393 11.40892748 7.11352539 13.11401367 C7.11344986 14.15486618 7.11337433 15.19571869 7.11329651 16.26811218 C7.10813522 17.39006485 7.10297394 18.51201752 7.09765625 19.66796875 C7.0962413 20.81791824 7.09482635 21.96786774 7.09336853 23.15266418 C7.08776429 26.83096908 7.07521104 30.50921345 7.0625 34.1875 C7.05748555 36.67903558 7.05292255 39.17057211 7.04882812 41.66210938 C7.03864373 47.77478175 7.01906901 53.88732299 7 60 C15.25 60 23.5 60 32 60 C32 41.52 32 23.04 32 4 C43.87672439 -1.27854417 43.87672439 -1.27854417 52 0 C56.19873597 2.31358921 57.52153948 4.54807323 59 9 C59.24050903 11.57539368 59.24050903 11.57539368 59.22705078 14.34106445 C59.22680908 15.39620239 59.22656738 16.45134033 59.22631836 17.53845215 C59.21608643 18.63564575 59.20585449 19.73283936 59.1953125 20.86328125 C59.19329834 21.88047241 59.19128418 22.89766357 59.18920898 23.94567871 C59.17876828 27.73466521 59.15084571 31.52358727 59.125 35.3125 C59.08375 43.789375 59.0425 52.26625 59 61 C33.26 61 7.52 61 -19 61 C-19 42.19 -19 23.38 -19 4 C-11.60996929 0.30498464 -7.8584886 -1.4135696 0 0 Z " fill="#FBFCFC" transform="translate(108,110)"/>
<path d="M0 0 C8.25 0 16.5 0 25 0 C25 25.74 25 51.48 25 78 C16.75 78 8.5 78 0 78 C0 52.26 0 26.52 0 0 Z " fill="#014485" transform="translate(19,92)"/>
<path d="M0 0 C3 1 3 1 4.65625 4.04296875 C6.2512045 8.1378683 6.53896775 11.94909803 6.5 16.3125 C6.49427979 17.05870605 6.48855957 17.80491211 6.48266602 18.57373047 C6.21291578 26.94597843 3.31768422 32.72828512 -2.3125 38.875 C-10.06586589 46.05278851 -18.16102966 47.33295915 -28.42578125 47.30078125 C-33.21802094 46.89749988 -36.89367574 45.43337734 -41 43 C-39.42205688 39.12686689 -37.28662721 36.58011415 -34 34 C-31.14660372 33.73738131 -28.866947 33.69533327 -26.0625 33.9375 C-20.15274071 34.41756448 -16.73067648 33.86163369 -12 30 C-8.74564505 26.56484755 -6.93050011 23.65250055 -6 19 C-6.24845272 17.01789944 -6.52171766 15.03883424 -6.8125 13.0625 C-7.42973263 7.67513258 -7.42973263 7.67513258 -5.515625 4.66796875 C-3.75824813 2.94222466 -2.00850037 1.42247906 0 0 Z " fill="#5B5B5B" transform="translate(56,15)"/>
<path d="M0 0 C-1.58087353 3.88032593 -3.74971997 6.36840598 -7 9 C-9.85339628 9.26261869 -12.133053 9.30466673 -14.9375 9.0625 C-20.84366825 8.58272723 -24.28038404 9.12516737 -29 13 C-32.97178393 17.50851149 -34.07878028 19.51574376 -33.73242188 25.51171875 C-33.2747833 34.78097998 -33.2747833 34.78097998 -35.5546875 38.61328125 C-37.28837225 40.29474658 -38.961295 41.71020704 -41 43 C-44 42 -44 42 -44.94921875 40.390625 C-47.68153489 32.46835385 -48.55315929 23.6023305 -45.75 15.5625 C-41.7073047 7.33272742 -36.28665327 1.14332664 -28 -3 C-18.09213084 -5.4555031 -9.0359762 -4.5179881 0 0 Z " fill="#5C5C5C" transform="translate(48,5)"/>
<path d="M0 0 C0.66 0 1.32 0 2 0 C3.38867188 1.68066406 3.38867188 1.68066406 4.96875 4.015625 C5.53980469 4.85480469 6.11085937 5.69398438 6.69921875 6.55859375 C7.29347656 7.44675781 7.88773438 8.33492187 8.5 9.25 C9.09425781 10.12269531 9.68851562 10.99539062 10.30078125 11.89453125 C12.77251446 15.54912549 15.0219677 19.04393539 17 23 C26.9 22.67 36.8 22.34 47 22 C47 22.66 47 23.32 47 24 C16.64 24 -13.72 24 -45 24 C-44.67 23.34 -44.34 22.68 -44 22 C-34.43 22.33 -24.86 22.66 -15 23 C-14.34 21.35 -13.68 19.7 -13 18 C-11.39548669 15.77624914 -9.77755643 13.63330251 -8.0625 11.5 C-5.63274817 8.45131575 -3.2749746 5.47247368 -1.30859375 2.09375 C-0.87675781 1.4028125 -0.44492188 0.711875 0 0 Z " fill="#F1F4F7" transform="translate(247,147)"/>
<path d="M0 0 C13.53 0 27.06 0 41 0 C41 0.66 41 1.32 41 2 C39.92621094 1.97679688 38.85242187 1.95359375 37.74609375 1.9296875 C36.30990285 1.91091376 34.87370435 1.8927153 33.4375 1.875 C32.73302734 1.85824219 32.02855469 1.84148438 31.30273438 1.82421875 C22.53888803 1.74344597 16.52229384 4.26095105 10 10 C3.58070112 16.93978257 1.82466087 23.56663072 1.9375 32.75 C1.94426758 33.79607422 1.94426758 33.79607422 1.95117188 34.86328125 C1.9628998 36.57555803 1.98083347 38.28779033 2 40 C1.01 40.495 1.01 40.495 0 41 C0 27.47 0 13.94 0 0 Z " fill="#F7F7F7" transform="translate(0,0)"/>
</svg>
